<svg xmlns="http://www.w3.org/2000/svg" viewBox="0 0 320 80" fill="none">
  <rect width="320" height="80" fill="#0A0A0A"/>
  <path d="M40 70C40 70 35 70 35 60V35H25V25H35V20C35 10 45 5 55 5C60 5 65 7 65 7L62 15C62 15 58 13 55 13C50 13 45 15 45 20V25H60V35H45V60C45 75 60 75 60 75H65V80H60C50 80 40 75 40 70Z" fill="#F8F7F2"/>
  <circle cx="73" cy="14" r="4" fill="#0D3B2E"/>
  <text x="92" y="54" font-family="'Inter', system-ui, sans-serif" font-size="40" font-weight="400" letter-spacing="-0.02em" fill="#F8F7F2">faworra</text>
</svg>
