<svg xmlns="http://www.w3.org/2000/svg" viewBox="0 0 200 160" fill="none">
  <!-- Icon centered -->
  <path d="M100 140C100 140 94 140 94 130V104H80V92H94V86C94 72 104 64 114 64C120 64 126 66.5 126 66.5L123 76C123 76 119 73.5 115 73.5C110 73.5 104 76 104 86V92H120V104H104V130C104 142 116 142 116 142H122V148H116C106 148 100 140 100 140Z" fill="#0A0A0A"/>
  <circle cx="124" cy="72" r="5" fill="#0D3B2E"/>
  <!-- Wordmark centered below -->
  <text x="100" y="158" font-family="'Inter', system-ui, sans-serif" font-size="28" font-weight="400" letter-spacing="-0.02em" fill="#0A0A0A" text-anchor="middle">faworra</text>
</svg>
